<?xml version="1.0" standalone="no"?>
<!DOCTYPE svg PUBLIC "-//W3C//DTD SVG 20010904//EN"
 "http://www.w3.org/TR/2001/REC-SVG-20010904/DTD/svg10.dtd">
<svg version="1.0" xmlns="http://www.w3.org/2000/svg"
 width="320.000000pt" height="320.000000pt" viewBox="0 0 320.000000 320.000000"
 preserveAspectRatio="xMidYMid meet">
<metadata>
Created by potrace 1.11, written by Peter Selinger 2001-2013
</metadata>
<g transform="translate(0.000000,320.000000) scale(0.100000,-0.100000)"
fill="#000000" stroke="none">
<path d="M1450 3194 c-435 -52 -808 -248 -1071 -562 -181 -217 -295 -456 -351
-737 -32 -157 -32 -433 0 -590 132 -663 634 -1159 1297 -1281 139 -26 411 -26
550 0 586 108 1053 511 1242 1071 59 176 77 295 77 505 0 151 -4 206 -22 295
-130 653 -620 1145 -1268 1275 -96 20 -371 34 -454 24z m744 -838 l29 -24 -12
-119 c-7 -65 -18 -147 -24 -183 l-12 -65 -56 -3 -56 -3 -7 64 c-8 83 -32 153
-59 172 -17 12 -63 15 -244 15 l-223 0 0 -250 0 -250 233 0 234 0 23 -25 23
-24 -32 -53 c-18 -29 -44 -66 -58 -82 -21 -24 -28 -28 -42 -18 -61 44 -179 66
-313 60 l-63 -3 0 -310 0 -310 30 -14 c17 -8 62 -22 100 -31 l70 -17 3 -51 3
-52 -366 0 -366 0 3 51 3 51 58 18 c31 10 69 25 82 34 l25 16 0 625 0 624 -27
21 c-15 11 -53 28 -85 37 l-58 16 0 54 0 53 578 0 577 -1 29 -23z"/>
</g>
</svg>
